ply
format ascii 1.0
element vertex 308
property float x
property float y
property float z
property float nx
property float ny
property float nz
element face 216
property list uchar int vertex_index
end_header
-38.0428 5.4038 67.0223 6.08119e-006 0.0104905 -0.999945 
-39.184 4.98922 67.018 1.80975e-005 0.0292925 -2.79238 
-39.257 5.4045 67.0223 1.69702e-005 0.0292954 -2.79237 
-38.9734 4.62394 67.0142 1.2316e-005 0.0292975 -2.79237 
-39.184 4.98922 67.018 1.80975e-005 0.0292925 -2.79238 
-38.6505 4.35273 67.0113 1.85307e-005 0.0292982 -2.79237 
-38.9734 4.62394 67.0142 1.2316e-005 0.0292975 -2.79237 
-38.2544 4.20829 67.0098 2.4324e-005 0.0292919 -2.79238 
-38.6505 4.35273 67.0113 1.85307e-005 0.0292982 -2.79237 
-37.8327 4.20804 67.0098 9.6268e-006 0.0292919 -2.79237 
-38.2544 4.20829 67.0098 2.4324e-005 0.0292919 -2.79238 
-37.4364 4.35203 67.0113 1.54197e-005 0.0292982 -2.79237 
-37.8327 4.20804 67.0098 9.6268e-006 0.0292919 -2.79237 
-37.1132 4.62287 67.0142 2.1647e-005 0.0292975 -2.79237 
-37.4364 4.35203 67.0113 1.54197e-005 0.0292982 -2.79237 
-36.9022 4.9879 67.018 1.58483e-005 0.0292924 -2.79238 
-37.1132 4.62287 67.0142 2.1647e-005 0.0292975 -2.79237 
-36.8287 5.4031 67.0223 1.69818e-005 0.0292955 -2.79237 
-36.9022 4.9879 67.018 1.58483e-005 0.0292924 -2.79238 
-36.9017 5.81838 67.0267 1.81085e-005 0.0292925 -2.79238 
-36.8287 5.4031 67.0223 1.69818e-005 0.0292955 -2.79237 
-37.1123 6.18365 67.0305 1.2325e-005 0.0292975 -2.79237 
-36.9017 5.81838 67.0267 1.81085e-005 0.0292925 -2.79238 
-37.4352 6.45487 67.0334 1.85512e-005 0.0292983 -2.79238 
-37.1123 6.18365 67.0305 1.2325e-005 0.0292975 -2.79237 
-37.8313 6.59931 67.0349 2.43404e-005 0.0292919 -2.79237 
-37.4352 6.45487 67.0334 1.85512e-005 0.0292983 -2.79238 
-38.253 6.59956 67.0349 9.64317e-006 0.0292919 -2.79237 
-37.8313 6.59931 67.0349 2.43404e-005 0.0292919 -2.79237 
-38.6493 6.45557 67.0334 1.544e-005 0.0292982 -2.79237 
-38.253 6.59956 67.0349 9.64317e-006 0.0292919 -2.79237 
-38.9725 6.18473 67.0305 2.1656e-005 0.0292975 -2.79237 
-38.6493 6.45557 67.0334 1.544e-005 0.0292982 -2.79237 
-39.1835 5.8197 67.0267 1.58477e-005 0.0292924 -2.79238 
-38.9725 6.18473 67.0305 2.1656e-005 0.0292975 -2.79237 
-39.257 5.4045 67.0223 1.69702e-005 0.0292954 -2.79237 
-39.1835 5.8197 67.0267 1.58477e-005 0.0292924 -2.79238 
-39.257 5.4045 67.0223 1.69702e-005 0.0292954 -2.79237 
-39.184 5.04264 61.9262 0.939891 0.341457 0.00358781 
-39.257 5.45792 61.9305 1.0 -0.000578541 0.0 
-39.184 5.04264 61.9262 0.939891 0.341457 0.00358781 
-39.184 4.98922 67.018 1.80975e-005 0.0292925 -2.79238 
-38.9734 4.67736 61.9223 0.766417 0.642308 0.00674295 
-38.9734 4.67736 61.9223 0.766417 0.642308 0.00674295 
-38.9734 4.62394 67.0142 1.2316e-005 0.0292975 -2.79237 
-38.6505 4.40615 61.9195 0.500501 0.865689 0.00908482 
-38.6505 4.40615 61.9195 0.500501 0.865689 0.00908482 
-38.6505 4.35273 67.0113 1.85307e-005 0.0292982 -2.79237 
-38.2543 4.26171 61.918 0.174218 0.984653 0.0103309 
-38.2543 4.26171 61.918 0.174218 0.984653 0.0103309 
-38.2544 4.20829 67.0098 2.4324e-005 0.0292919 -2.79238 
-37.8327 4.26146 61.918 -0.173076 0.984854 0.0103309 
-37.8327 4.26146 61.918 -0.173076 0.984854 0.0103309 
-37.8327 4.20804 67.0098 9.6268e-006 0.0292919 -2.79237 
-37.4363 4.40544 61.9195 -0.499497 0.866268 0.0090849 
-37.4363 4.40544 61.9195 -0.499497 0.866268 0.0090849 
-37.4364 4.35203 67.0113 1.54197e-005 0.0292982 -2.79237 
-37.1132 4.67628 61.9223 -0.765673 0.643195 0.00674306 
-37.1132 4.67628 61.9223 -0.765673 0.643195 0.00674306 
-37.1132 4.62287 67.0142 2.1647e-005 0.0292975 -2.79237 
-36.9021 5.04132 61.9262 -0.939494 0.342545 0.00358796 
-36.9021 5.04132 61.9262 -0.939494 0.342545 0.00358796 
-36.9022 4.9879 67.018 1.58483e-005 0.0292924 -2.79238 
-36.8287 5.45651 61.9305 -1.0 0.000578888 0.0 
-36.8287 5.45651 61.9305 -1.0 0.000578888 0.0 
-36.8287 5.4031 67.0223 1.69818e-005 0.0292955 -2.79237 
-36.9016 5.8718 61.9349 -0.939891 -0.341457 -0.00358801 
-36.9016 5.8718 61.9349 -0.939891 -0.341457 -0.00358801 
-36.9017 5.81838 67.0267 1.81085e-005 0.0292925 -2.79238 
-37.1123 6.23707 61.9387 -0.766418 -0.642307 -0.00674293 
-37.1123 6.23707 61.9387 -0.766418 -0.642307 -0.00674293 
-37.1123 6.18365 67.0305 1.2325e-005 0.0292975 -2.79237 
-37.4351 6.50829 61.9415 -0.500502 -0.865688 -0.00908479 
-37.4351 6.50829 61.9415 -0.500502 -0.865688 -0.00908479 
-37.4352 6.45487 67.0334 1.85512e-005 0.0292983 -2.79238 
-37.8313 6.65273 61.9431 -0.17422 -0.984653 -0.0103309 
-37.8313 6.65273 61.9431 -0.17422 -0.984653 -0.0103309 
-37.8313 6.59931 67.0349 2.43404e-005 0.0292919 -2.79237 
-38.2529 6.65297 61.9431 0.173078 -0.984854 -0.0103309 
-38.2529 6.65297 61.9431 0.173078 -0.984854 -0.0103309 
-38.253 6.59956 67.0349 9.64317e-006 0.0292919 -2.79237 
-38.6493 6.50899 61.9415 0.499495 -0.866269 -0.00908465 
-38.6493 6.50899 61.9415 0.499495 -0.866269 -0.00908465 
-38.6493 6.45557 67.0334 1.544e-005 0.0292982 -2.79237 
-38.9724 6.23815 61.9387 0.765671 -0.643197 -0.00674285 
-38.9724 6.23815 61.9387 0.765671 -0.643197 -0.00674285 
-38.9725 6.18473 67.0305 2.1656e-005 0.0292975 -2.79237 
-39.1835 5.87312 61.9349 0.939494 -0.342545 -0.00358796 
-39.1835 5.87312 61.9349 0.939494 -0.342545 -0.00358796 
-39.1835 5.8197 67.0267 1.58477e-005 0.0292924 -2.79238 
-39.257 5.45792 61.9305 1.0 -0.000578541 0.0 
-39.257 5.45792 61.9305 1.0 -0.000578541 0.0 
-39.1839 5.09606 56.8343 0.939891 0.341457 0.00358781 
-39.2569 5.51134 56.8387 1.0 -0.000578623 0.0 
-39.1839 5.09606 56.8343 0.939891 0.341457 0.00358781 
-39.184 5.04264 61.9262 0.939891 0.341457 0.00358781 
-38.9733 4.73078 56.8305 0.766417 0.642308 0.00674295 
-38.9733 4.73078 56.8305 0.766417 0.642308 0.00674295 
-38.9734 4.67736 61.9223 0.766417 0.642308 0.00674295 
-38.6505 4.45956 56.8277 0.500501 0.865689 0.00908481 
-38.6505 4.45956 56.8277 0.500501 0.865689 0.00908481 
-38.6505 4.40615 61.9195 0.500501 0.865689 0.00908482 
-38.2543 4.31512 56.8261 0.174218 0.984653 0.0103309 
-38.2543 4.31512 56.8261 0.174218 0.984653 0.0103309 
-38.2543 4.26171 61.918 0.174218 0.984653 0.0103309 
-37.8326 4.31488 56.8261 -0.173078 0.984854 0.0103308 
-37.8326 4.31488 56.8261 -0.173078 0.984854 0.0103308 
-37.8327 4.26146 61.918 -0.173076 0.984854 0.0103309 
-37.4363 4.45886 56.8277 -0.499499 0.866267 0.0090848 
-37.4363 4.45886 56.8277 -0.499499 0.866267 0.0090848 
-37.4363 4.40544 61.9195 -0.499497 0.866268 0.0090849 
-37.1131 4.7297 56.8305 -0.765673 0.643195 0.00674292 
-37.1131 4.7297 56.8305 -0.765673 0.643195 0.00674292 
-37.1132 4.67628 61.9223 -0.765673 0.643195 0.00674306 
-36.9021 5.09473 56.8343 -0.939494 0.342545 0.00358779 
-36.9021 5.09473 56.8343 -0.939494 0.342545 0.00358779 
-36.9021 5.04132 61.9262 -0.939494 0.342545 0.00358796 
-36.8286 5.50993 56.8387 -1.0 0.000583251 1.25e-007 
-36.8286 5.50993 56.8387 -1.0 0.000583251 1.25e-007 
-36.8287 5.45651 61.9305 -1.0 0.000578888 0.0 
-36.9016 5.92521 56.843 -0.939891 -0.341456 -0.00358798 
-36.9016 5.92521 56.843 -0.939891 -0.341456 -0.00358798 
-36.9016 5.8718 61.9349 -0.939891 -0.341457 -0.00358801 
-37.1122 6.29049 56.8469 -0.766415 -0.642311 -0.00674325 
-37.1122 6.29049 56.8469 -0.766415 -0.642311 -0.00674325 
-37.1123 6.23707 61.9387 -0.766418 -0.642307 -0.00674293 
-37.4351 6.56171 56.8497 -0.500502 -0.865688 -0.00908493 
-37.4351 6.56171 56.8497 -0.500502 -0.865688 -0.00908493 
-37.4351 6.50829 61.9415 -0.500502 -0.865688 -0.00908479 
-37.8312 6.70615 56.8512 -0.174221 -0.984652 -0.0103308 
-37.8312 6.70615 56.8512 -0.174221 -0.984652 -0.0103308 
-37.8313 6.65273 61.9431 -0.17422 -0.984653 -0.0103309 
-38.2529 6.70639 56.8512 0.173077 -0.984854 -0.0103309 
-38.2529 6.70639 56.8512 0.173077 -0.984854 -0.0103309 
-38.2529 6.65297 61.9431 0.173078 -0.984854 -0.0103309 
-38.6492 6.56241 56.8497 0.499499 -0.866267 -0.00908491 
-38.6492 6.56241 56.8497 0.499499 -0.866267 -0.00908491 
-38.6493 6.50899 61.9415 0.499495 -0.866269 -0.00908465 
-38.9724 6.29157 56.8469 0.76567 -0.643198 -0.00674294 
-38.9724 6.29157 56.8469 0.76567 -0.643198 -0.00674294 
-38.9724 6.23815 61.9387 0.765671 -0.643197 -0.00674285 
-39.1835 5.92654 56.843 0.939493 -0.342549 -0.00358784 
-39.1835 5.92654 56.843 0.939493 -0.342549 -0.00358784 
-39.1835 5.87312 61.9349 0.939494 -0.342545 -0.00358796 
-39.2569 5.51134 56.8387 1.0 -0.000578623 0.0 
-39.2569 5.51134 56.8387 1.0 -0.000578623 0.0 
-39.1839 5.14947 51.7425 0.939891 0.341457 0.00358795 
-39.2569 5.56476 51.7468 1.0 -0.000578681 1.1992e-007 
-39.1839 5.14947 51.7425 0.939891 0.341457 0.00358795 
-39.1839 5.09606 56.8343 0.939891 0.341457 0.00358781 
-38.9733 4.7842 51.7387 0.766417 0.642308 0.00674309 
-38.9733 4.7842 51.7387 0.766417 0.642308 0.00674309 
-38.9733 4.73078 56.8305 0.766417 0.642308 0.00674295 
-38.6504 4.51298 51.7358 0.5005 0.865689 0.00908477 
-38.6504 4.51298 51.7358 0.5005 0.865689 0.00908477 
-38.6505 4.45956 56.8277 0.500501 0.865689 0.00908481 
-38.2543 4.36854 51.7343 0.174219 0.984653 0.0103309 
-38.2543 4.36854 51.7343 0.174219 0.984653 0.0103309 
-38.2543 4.31512 56.8261 0.174218 0.984653 0.0103309 
-37.8326 4.3683 51.7343 -0.173078 0.984854 0.0103309 
-37.8326 4.3683 51.7343 -0.173078 0.984854 0.0103309 
-37.8326 4.31488 56.8261 -0.173078 0.984854 0.0103308 
-37.4363 4.51228 51.7358 -0.499499 0.866267 0.00908489 
-37.4363 4.51228 51.7358 -0.499499 0.866267 0.00908489 
-37.4363 4.45886 56.8277 -0.499499 0.866267 0.0090848 
-37.1131 4.78312 51.7387 -0.76567 0.643198 0.00674311 
-37.1131 4.78312 51.7387 -0.76567 0.643198 0.00674311 
-37.1131 4.7297 56.8305 -0.765673 0.643195 0.00674292 
-36.9021 5.14815 51.7425 -0.939495 0.342545 0.00358776 
-36.9021 5.14815 51.7425 -0.939495 0.342545 0.00358776 
-36.9021 5.09473 56.8343 -0.939494 0.342545 0.00358779 
-36.8286 5.56335 51.7468 -1.0 0.000578882 0.0 
-36.8286 5.56335 51.7468 -1.0 0.000578882 0.0 
-36.8286 5.50993 56.8387 -1.0 0.000583251 1.25e-007 
-36.9016 5.97863 51.7512 -0.939891 -0.341456 -0.0035878 
-36.9016 5.97863 51.7512 -0.939891 -0.341456 -0.0035878 
-36.9016 5.92521 56.843 -0.939891 -0.341456 -0.00358798 
-37.1122 6.34391 51.755 -0.766417 -0.642308 -0.00674296 
-37.1122 6.34391 51.755 -0.766417 -0.642308 -0.00674296 
-37.1122 6.29049 56.8469 -0.766415 -0.642311 -0.00674325 
-37.4351 6.61512 51.7579 -0.500503 -0.865687 -0.00908484 
-37.4351 6.61512 51.7579 -0.500503 -0.865687 -0.00908484 
-37.4351 6.56171 56.8497 -0.500502 -0.865688 -0.00908493 
-37.8312 6.75956 51.7594 -0.174219 -0.984653 -0.010331 
-37.8312 6.75956 51.7594 -0.174219 -0.984653 -0.010331 
-37.8312 6.70615 56.8512 -0.174221 -0.984652 -0.0103308 
-38.2529 6.75981 51.7594 0.173078 -0.984854 -0.0103309 
-38.2529 6.75981 51.7594 0.173078 -0.984854 -0.0103309 
-38.2529 6.70639 56.8512 0.173077 -0.984854 -0.0103309 
-38.6492 6.61583 51.7579 0.499498 -0.866267 -0.00908485 
-38.6492 6.61583 51.7579 0.499498 -0.866267 -0.00908485 
-38.6492 6.56241 56.8497 0.499499 -0.866267 -0.00908491 
-38.9724 6.34499 51.755 0.76567 -0.643198 -0.00674309 
-38.9724 6.34499 51.755 0.76567 -0.643198 -0.00674309 
-38.9724 6.29157 56.8469 0.76567 -0.643198 -0.00674294 
-39.1834 5.97995 51.7512 0.939493 -0.342549 -0.00358782 
-39.1834 5.97995 51.7512 0.939493 -0.342549 -0.00358782 
-39.1835 5.92654 56.843 0.939493 -0.342549 -0.00358784 
-39.2569 5.56476 51.7468 1.0 -0.000578681 1.1992e-007 
-39.2569 5.56476 51.7468 1.0 -0.000578681 1.1992e-007 
-39.1839 5.20289 46.6507 0.939891 0.341456 0.00358798 
-39.2569 5.61817 46.655 1.0 -0.00057868 1.19694e-007 
-39.1839 5.20289 46.6507 0.939891 0.341456 0.00358798 
-39.1839 5.14947 51.7425 0.939891 0.341457 0.00358795 
-38.9733 4.83761 46.6468 0.766417 0.642308 0.00674307 
-38.9733 4.83761 46.6468 0.766417 0.642308 0.00674307 
-38.9733 4.7842 51.7387 0.766417 0.642308 0.00674309 
-38.6504 4.5664 46.644 0.500503 0.865687 0.00908487 
-38.6504 4.5664 46.644 0.500503 0.865687 0.00908487 
-38.6504 4.51298 51.7358 0.5005 0.865689 0.00908477 
-38.2542 4.42196 46.6425 0.174218 0.984653 0.0103308 
-38.2542 4.42196 46.6425 0.174218 0.984653 0.0103308 
-38.2543 4.36854 51.7343 0.174219 0.984653 0.0103309 
-37.8326 4.42171 46.6425 -0.173078 0.984854 0.0103309 
-37.8326 4.42171 46.6425 -0.173078 0.984854 0.0103309 
-37.8326 4.3683 51.7343 -0.173078 0.984854 0.0103309 
-37.4363 4.5657 46.644 -0.499499 0.866267 0.00908489 
-37.4363 4.5657 46.644 -0.499499 0.866267 0.00908489 
-37.4363 4.51228 51.7358 -0.499499 0.866267 0.00908489 
-37.1131 4.83654 46.6468 -0.76567 0.643198 0.0067431 
-37.1131 4.83654 46.6468 -0.76567 0.643198 0.0067431 
-37.1131 4.78312 51.7387 -0.76567 0.643198 0.00674311 
-36.902 5.20157 46.6507 -0.939495 0.342545 0.00358778 
-36.902 5.20157 46.6507 -0.939495 0.342545 0.00358778 
-36.9021 5.14815 51.7425 -0.939495 0.342545 0.00358776 
-36.8286 5.61677 46.655 -1.0 0.000578651 0.0 
-36.8286 5.61677 46.655 -1.0 0.000578651 0.0 
-36.8286 5.56335 51.7468 -1.0 0.000578882 0.0 
-36.9016 6.03205 46.6594 -0.939891 -0.341456 -0.00358795 
-36.9016 6.03205 46.6594 -0.939891 -0.341456 -0.00358795 
-36.9016 5.97863 51.7512 -0.939891 -0.341456 -0.0035878 
-37.1122 6.39733 46.6632 -0.766417 -0.642308 -0.00674313 
-37.1122 6.39733 46.6632 -0.766417 -0.642308 -0.00674313 
-37.1122 6.34391 51.755 -0.766417 -0.642308 -0.00674296 
-37.435 6.66854 46.666 -0.500503 -0.865687 -0.0090848 
-37.435 6.66854 46.666 -0.500503 -0.865687 -0.0090848 
-37.4351 6.61512 51.7579 -0.500503 -0.865687 -0.00908484 
-37.8312 6.81298 46.6676 -0.174219 -0.984653 -0.0103309 
-37.8312 6.81298 46.6676 -0.174219 -0.984653 -0.0103309 
-37.8312 6.75956 51.7594 -0.174219 -0.984653 -0.010331 
-38.2529 6.81323 46.6676 0.173077 -0.984854 -0.0103309 
-38.2529 6.81323 46.6676 0.173077 -0.984854 -0.0103309 
-38.2529 6.75981 51.7594 0.173078 -0.984854 -0.0103309 
-38.6492 6.66925 46.666 0.499498 -0.866267 -0.00908489 
-38.6492 6.66925 46.666 0.499498 -0.866267 -0.00908489 
-38.6492 6.61583 51.7579 0.499498 -0.866267 -0.00908485 
-38.9724 6.3984 46.6632 0.76567 -0.643198 -0.00674309 
-38.9724 6.3984 46.6632 0.76567 -0.643198 -0.00674309 
-38.9724 6.34499 51.755 0.76567 -0.643198 -0.00674309 
-39.1834 6.03337 46.6594 0.939495 -0.342545 -0.00358795 
-39.1834 6.03337 46.6594 0.939495 -0.342545 -0.00358795 
-39.1834 5.97995 51.7512 0.939493 -0.342549 -0.00358782 
-39.2569 5.61817 46.655 1.0 -0.00057868 1.19694e-007 
-39.2569 5.61817 46.655 1.0 -0.00057868 1.19694e-007 
-39.1838 5.25631 41.5588 2.90789 1.05642 0.0111001 
-39.2568 5.67159 41.5632 3.09387 -0.00179021 -2.38186e-007 
-39.1838 5.25631 41.5588 2.90789 1.05642 0.0111001 
-39.1839 5.20289 46.6507 0.939891 0.341456 0.00358798 
-38.9732 4.89103 41.555 2.37119 1.98721 0.0208618 
-38.9732 4.89103 41.555 2.37119 1.98721 0.0208618 
-38.9733 4.83761 46.6468 0.766417 0.642308 0.00674307 
-38.6504 4.61982 41.5522 1.54849 2.67832 0.0281072 
-38.6504 4.61982 41.5522 1.54849 2.67832 0.0281072 
-38.6504 4.5664 46.644 0.500503 0.865687 0.00908487 
-38.2542 4.47538 41.5506 0.539006 3.04638 0.0319623 
-38.2542 4.47538 41.5506 0.539006 3.04638 0.0319623 
-38.2542 4.42196 46.6425 0.174218 0.984653 0.0103308 
-37.8325 4.47513 41.5506 -0.535479 3.047 0.0319624 
-37.8325 4.47513 41.5506 -0.535479 3.047 0.0319624 
-37.8326 4.42171 46.6425 -0.173078 0.984854 0.0103309 
-37.4362 4.61911 41.5522 -1.54538 2.68012 0.0281075 
-37.4362 4.61911 41.5522 -1.54538 2.68012 0.0281075 
-37.4363 4.5657 46.644 -0.499499 0.866267 0.00908489 
-37.113 4.88995 41.555 -2.36888 1.98997 0.0208622 
-37.113 4.88995 41.555 -2.36888 1.98997 0.0208622 
-37.1131 4.83654 46.6468 -0.76567 0.643198 0.0067431 
-36.902 5.25499 41.5588 -2.90666 1.0598 0.0111008 
-36.902 5.25499 41.5588 -2.90666 1.0598 0.0111008 
-36.902 5.20157 46.6507 -0.939495 0.342545 0.00358778 
-36.8285 5.67018 41.5632 -3.09386 0.00178993 -9.85106e-007 
-36.8285 5.67018 41.5632 -3.09386 0.00178993 -9.85106e-007 
-36.8286 5.61677 46.655 -1.0 0.000578651 0.0 
-36.9015 6.08547 41.5675 -2.9079 -1.05642 -0.0111012 
-36.9015 6.08547 41.5675 -2.9079 -1.05642 -0.0111012 
-36.9016 6.03205 46.6594 -0.939891 -0.341456 -0.00358795 
-37.1121 6.45074 41.5714 -2.37118 -1.98721 -0.0208624 
-37.1121 6.45074 41.5714 -2.37118 -1.98721 -0.0208624 
-37.1122 6.39733 46.6632 -0.766417 -0.642308 -0.00674313 
-37.435 6.72196 41.5742 -1.54849 -2.67833 -0.028108 
-37.435 6.72196 41.5742 -1.54849 -2.67833 -0.028108 
-37.435 6.66854 46.666 -0.500503 -0.865687 -0.0090848 
-37.8312 6.8664 41.5757 -0.539007 -3.04638 -0.0319623 
-37.8312 6.8664 41.5757 -0.539007 -3.04638 -0.0319623 
-37.8312 6.81298 46.6676 -0.174219 -0.984653 -0.0103309 
-38.2528 6.86664 41.5757 0.535476 -3.047 -0.0319624 
-38.2528 6.86664 41.5757 0.535476 -3.047 -0.0319624 
-38.2529 6.81323 46.6676 0.173077 -0.984854 -0.0103309 
-38.6491 6.72266 41.5742 1.54539 -2.68012 -0.0281075 
-38.6491 6.72266 41.5742 1.54539 -2.68012 -0.0281075 
-38.6492 6.66925 46.666 0.499498 -0.866267 -0.00908489 
-38.9723 6.45182 41.5714 2.36888 -1.98996 -0.0208622 
-38.9723 6.45182 41.5714 2.36888 -1.98996 -0.0208622 
-38.9724 6.3984 46.6632 0.76567 -0.643198 -0.00674309 
-39.1834 6.08679 41.5675 2.90667 -1.05979 -0.0111007 
-39.1834 6.08679 41.5675 2.90667 -1.05979 -0.0111007 
-39.1834 6.03337 46.6594 0.939495 -0.342545 -0.00358795 
-39.2568 5.67159 41.5632 3.09387 -0.00179021 -2.38186e-007 
-38.0427 5.67089 41.5632 -6.08048e-006 -0.0104899 0.999945 
3 0 1 2
3 0 3 4
3 0 5 6
3 0 7 8
3 0 9 10
3 0 11 12
3 0 13 14
3 0 15 16
3 0 17 18
3 0 19 20
3 0 21 22
3 0 23 24
3 0 25 26
3 0 27 28
3 0 29 30
3 0 31 32
3 0 33 34
3 0 35 36
3 37 38 39
3 37 1 40
3 41 42 40
3 41 3 43
3 44 45 43
3 44 5 46
3 47 48 46
3 47 7 49
3 50 51 49
3 50 9 52
3 53 54 52
3 53 11 55
3 56 57 55
3 56 13 58
3 59 60 58
3 59 15 61
3 62 63 61
3 62 17 64
3 65 66 64
3 65 19 67
3 68 69 67
3 68 21 70
3 71 72 70
3 71 23 73
3 74 75 73
3 74 25 76
3 77 78 76
3 77 27 79
3 80 81 79
3 80 29 82
3 83 84 82
3 83 31 85
3 86 87 85
3 86 33 88
3 89 90 88
3 89 35 39
3 91 92 93
3 91 38 94
3 95 96 94
3 95 42 97
3 98 99 97
3 98 45 100
3 101 102 100
3 101 48 103
3 104 105 103
3 104 51 106
3 107 108 106
3 107 54 109
3 110 111 109
3 110 57 112
3 113 114 112
3 113 60 115
3 116 117 115
3 116 63 118
3 119 120 118
3 119 66 121
3 122 123 121
3 122 69 124
3 125 126 124
3 125 72 127
3 128 129 127
3 128 75 130
3 131 132 130
3 131 78 133
3 134 135 133
3 134 81 136
3 137 138 136
3 137 84 139
3 140 141 139
3 140 87 142
3 143 144 142
3 143 90 93
3 145 146 147
3 145 92 148
3 149 150 148
3 149 96 151
3 152 153 151
3 152 99 154
3 155 156 154
3 155 102 157
3 158 159 157
3 158 105 160
3 161 162 160
3 161 108 163
3 164 165 163
3 164 111 166
3 167 168 166
3 167 114 169
3 170 171 169
3 170 117 172
3 173 174 172
3 173 120 175
3 176 177 175
3 176 123 178
3 179 180 178
3 179 126 181
3 182 183 181
3 182 129 184
3 185 186 184
3 185 132 187
3 188 189 187
3 188 135 190
3 191 192 190
3 191 138 193
3 194 195 193
3 194 141 196
3 197 198 196
3 197 144 147
3 199 200 201
3 199 146 202
3 203 204 202
3 203 150 205
3 206 207 205
3 206 153 208
3 209 210 208
3 209 156 211
3 212 213 211
3 212 159 214
3 215 216 214
3 215 162 217
3 218 219 217
3 218 165 220
3 221 222 220
3 221 168 223
3 224 225 223
3 224 171 226
3 227 228 226
3 227 174 229
3 230 231 229
3 230 177 232
3 233 234 232
3 233 180 235
3 236 237 235
3 236 183 238
3 239 240 238
3 239 186 241
3 242 243 241
3 242 189 244
3 245 246 244
3 245 192 247
3 248 249 247
3 248 195 250
3 251 252 250
3 251 198 201
3 253 254 255
3 253 200 256
3 257 258 256
3 257 204 259
3 260 261 259
3 260 207 262
3 263 264 262
3 263 210 265
3 266 267 265
3 266 213 268
3 269 270 268
3 269 216 271
3 272 273 271
3 272 219 274
3 275 276 274
3 275 222 277
3 278 279 277
3 278 225 280
3 281 282 280
3 281 228 283
3 284 285 283
3 284 231 286
3 287 288 286
3 287 234 289
3 290 291 289
3 290 237 292
3 293 294 292
3 293 240 295
3 296 297 295
3 296 243 298
3 299 300 298
3 299 246 301
3 302 303 301
3 302 249 304
3 305 306 304
3 305 252 255
3 307 306 256
3 307 254 259
3 307 258 262
3 307 261 265
3 307 264 268
3 307 267 271
3 307 270 274
3 307 273 277
3 307 276 280
3 307 279 283
3 307 282 286
3 307 285 289
3 307 288 292
3 307 291 295
3 307 294 298
3 307 297 301
3 307 300 304
3 307 303 255
