ply
format ascii 1.0
element vertex 24
property float x
property float y
property float z
property float nx
property float ny
property float nz
element face 12
property list uchar int vertex_index
end_header
-6.02473 1.80758 46.8697 -0.000910184 -1.5708 0.0 
-6.02473 1.80758 67.3029 -0.000910185 -1.5708 0.0 
-36.8885 1.82547 67.3029 -0.000910184 -1.5708 0.0 
-36.8885 1.82547 67.3029 -0.000910184 -1.5708 0.0 
-36.8885 1.82547 46.8697 -0.000910185 -1.5708 0.0 
-6.02473 1.80758 46.8697 -0.000910184 -1.5708 0.0 
-6.02586 -0.147242 46.8697 0.000910185 1.5708 0.0 
-36.8897 -0.129358 46.8697 0.000910185 1.5708 0.0 
-36.8897 -0.129358 67.3029 0.000910185 1.5708 0.0 
-36.8897 -0.129358 67.3029 0.000910185 1.5708 0.0 
-6.02586 -0.147242 67.3029 0.000910185 1.5708 0.0 
-6.02586 -0.147242 46.8697 0.000910185 1.5708 0.0 
-36.8897 -0.129358 46.8697 0.000910185 1.5708 0.0 
-36.8897 -0.129358 46.8697 0.000910185 1.5708 0.0 
-6.02586 -0.147242 46.8697 0.000910185 1.5708 0.0 
-36.8885 1.82547 46.8697 -0.000910185 -1.5708 0.0 
-36.8885 1.82547 67.3029 -0.000910184 -1.5708 0.0 
-36.8885 1.82547 46.8697 -0.000910185 -1.5708 0.0 
-6.02586 -0.147242 67.3029 0.000910185 1.5708 0.0 
-6.02586 -0.147242 67.3029 0.000910185 1.5708 0.0 
-36.8897 -0.129358 67.3029 0.000910185 1.5708 0.0 
-6.02473 1.80758 67.3029 -0.000910185 -1.5708 0.0 
-6.02473 1.80758 46.8697 -0.000910184 -1.5708 0.0 
-6.02473 1.80758 67.3029 -0.000910185 -1.5708 0.0 
3 0 1 2
3 3 4 5
3 6 7 8
3 9 10 11
3 0 4 12
3 13 14 5
3 15 16 8
3 9 7 17
3 3 1 18
3 19 20 2
3 21 22 11
3 6 10 23
