ply
format ascii 1.0
element vertex 308
property float x
property float y
property float z
property float nx
property float ny
property float nz
element face 216
property list uchar int vertex_index
end_header
37.2291 5.66262 67.0223 0.0 -0.0104905 -0.999945 
38.37 6.07786 67.018 -1.13611e-006 -0.0292924 -2.79238 
38.4432 5.66262 67.0223 0.0 -0.0292954 -2.79237 
38.1591 6.44302 67.0142 4.65857e-006 -0.0292975 -2.79237 
38.37 6.07786 67.018 -1.13611e-006 -0.0292924 -2.79238 
37.8361 6.71405 67.0113 -1.55269e-006 -0.0292982 -2.79238 
38.1591 6.44302 67.0142 4.65857e-006 -0.0292975 -2.79237 
37.4399 6.85826 67.0098 -7.34734e-006 -0.0292919 -2.79237 
37.8361 6.71405 67.0113 -1.55269e-006 -0.0292982 -2.79238 
37.0182 6.85826 67.0098 7.34762e-006 -0.0292919 -2.79237 
37.4399 6.85826 67.0098 -7.34734e-006 -0.0292919 -2.79237 
36.622 6.71405 67.0113 1.5529e-006 -0.0292981 -2.79237 
37.0182 6.85826 67.0098 7.34762e-006 -0.0292919 -2.79237 
36.299 6.44302 67.0142 -4.65895e-006 -0.0292976 -2.79238 
36.622 6.71405 67.0113 1.5529e-006 -0.0292981 -2.79237 
36.0881 6.07786 67.018 1.13579e-006 -0.0292924 -2.79238 
36.299 6.44302 67.0142 -4.65895e-006 -0.0292976 -2.79238 
36.0149 5.66262 67.0223 0.0 -0.0292955 -2.79237 
36.0881 6.07786 67.018 1.13579e-006 -0.0292924 -2.79238 
36.0881 5.24738 67.0267 -1.13031e-006 -0.0292924 -2.79238 
36.0149 5.66262 67.0223 0.0 -0.0292955 -2.79237 
36.299 4.88223 67.0305 4.65024e-006 -0.0292976 -2.79238 
36.0881 5.24738 67.0267 -1.13031e-006 -0.0292924 -2.79238 
36.622 4.6112 67.0334 -1.55258e-006 -0.0292981 -2.79237 
36.299 4.88223 67.0305 4.65024e-006 -0.0292976 -2.79238 
37.0182 4.46699 67.0349 -7.34968e-006 -0.029292 -2.79238 
36.622 4.6112 67.0334 -1.55258e-006 -0.0292981 -2.79237 
37.4399 4.46699 67.0349 7.31434e-006 -0.0292919 -2.79237 
37.0182 4.46699 67.0349 -7.34968e-006 -0.029292 -2.79238 
37.8361 4.6112 67.0334 1.53238e-006 -0.0292982 -2.79238 
37.4399 4.46699 67.0349 7.31434e-006 -0.0292919 -2.79237 
38.1591 4.88223 67.0305 -4.67855e-006 -0.0292975 -2.79237 
37.8361 4.6112 67.0334 1.53238e-006 -0.0292982 -2.79238 
38.37 5.24738 67.0267 1.11999e-006 -0.0292924 -2.79238 
38.1591 4.88223 67.0305 -4.67855e-006 -0.0292975 -2.79237 
38.4432 5.66262 67.0223 0.0 -0.0292954 -2.79237 
38.37 5.24738 67.0267 1.11999e-006 -0.0292924 -2.79238 
38.4432 5.66262 67.0223 0.0 -0.0292954 -2.79237 
38.37 6.02444 61.9262 -0.939692 -0.342003 0.0035879 
38.4432 5.6092 61.9305 -1.0 -2.36002e-007 0.0 
38.37 6.02444 61.9262 -0.939692 -0.342003 0.0035879 
38.37 6.07786 67.018 -1.13611e-006 -0.0292924 -2.79238 
38.1591 6.3896 61.9223 -0.766044 -0.642753 0.00674303 
38.1591 6.3896 61.9223 -0.766044 -0.642753 0.00674303 
38.1591 6.44302 67.0142 4.65857e-006 -0.0292975 -2.79237 
37.8361 6.66063 61.9195 -0.5 -0.865977 0.00908485 
37.8361 6.66063 61.9195 -0.5 -0.865977 0.00908485 
37.8361 6.71405 67.0113 -1.55269e-006 -0.0292982 -2.79238 
37.4399 6.80484 61.918 -0.173649 -0.984753 0.0103309 
37.4399 6.80484 61.918 -0.173649 -0.984753 0.0103309 
37.4399 6.85826 67.0098 -7.34734e-006 -0.0292919 -2.79237 
37.0182 6.80484 61.918 0.173648 -0.984754 0.0103309 
37.0182 6.80484 61.918 0.173648 -0.984754 0.0103309 
37.0182 6.85826 67.0098 7.34762e-006 -0.0292919 -2.79237 
36.622 6.66063 61.9195 0.500002 -0.865977 0.00908484 
36.622 6.66063 61.9195 0.500002 -0.865977 0.00908484 
36.622 6.71405 67.0113 1.5529e-006 -0.0292981 -2.79237 
36.299 6.3896 61.9223 0.766046 -0.642751 0.00674301 
36.299 6.3896 61.9223 0.766046 -0.642751 0.00674301 
36.299 6.44302 67.0142 -4.65895e-006 -0.0292976 -2.79238 
36.0881 6.02444 61.9262 0.939692 -0.342003 0.00358789 
36.0881 6.02444 61.9262 0.939692 -0.342003 0.00358789 
36.0881 6.07786 67.018 1.13579e-006 -0.0292924 -2.79238 
36.0149 5.6092 61.9305 1.0 1.20409e-007 0.0 
36.0149 5.6092 61.9305 1.0 1.20409e-007 0.0 
36.0149 5.66262 67.0223 0.0 -0.0292955 -2.79237 
36.0881 5.19397 61.9349 0.939692 0.342003 -0.00358791 
36.0881 5.19397 61.9349 0.939692 0.342003 -0.00358791 
36.0881 5.24738 67.0267 -1.13031e-006 -0.0292924 -2.79238 
36.299 4.82881 61.9387 0.766046 0.64275 -0.006743 
36.299 4.82881 61.9387 0.766046 0.64275 -0.006743 
36.299 4.88223 67.0305 4.65024e-006 -0.0292976 -2.79238 
36.622 4.55778 61.9415 0.500002 0.865977 -0.00908482 
36.622 4.55778 61.9415 0.500002 0.865977 -0.00908482 
36.622 4.6112 67.0334 -1.55258e-006 -0.0292981 -2.79237 
37.0182 4.41357 61.9431 0.173648 0.984754 -0.0103309 
37.0182 4.41357 61.9431 0.173648 0.984754 -0.0103309 
37.0182 4.46699 67.0349 -7.34968e-006 -0.029292 -2.79238 
37.4399 4.41357 61.9431 -0.173649 0.984753 -0.0103309 
37.4399 4.41357 61.9431 -0.173649 0.984753 -0.0103309 
37.4399 4.46699 67.0349 7.31434e-006 -0.0292919 -2.79237 
37.8361 4.55778 61.9415 -0.5 0.865978 -0.00908485 
37.8361 4.55778 61.9415 -0.5 0.865978 -0.00908485 
37.8361 4.6112 67.0334 1.53238e-006 -0.0292982 -2.79238 
38.1591 4.82881 61.9387 -0.766044 0.642753 -0.00674303 
38.1591 4.82881 61.9387 -0.766044 0.642753 -0.00674303 
38.1591 4.88223 67.0305 -4.67855e-006 -0.0292975 -2.79237 
38.37 5.19396 61.9349 -0.939692 0.342003 -0.0035879 
38.37 5.19396 61.9349 -0.939692 0.342003 -0.0035879 
38.37 5.24738 67.0267 1.11999e-006 -0.0292924 -2.79238 
38.4432 5.6092 61.9305 -1.0 -2.36002e-007 0.0 
38.4432 5.6092 61.9305 -1.0 -2.36002e-007 0.0 
38.37 5.97103 56.8343 -0.939692 -0.342003 0.0035879 
38.4432 5.55579 56.8387 -1.0 -1.34858e-007 0.0 
38.37 5.97103 56.8343 -0.939692 -0.342003 0.0035879 
38.37 6.02444 61.9262 -0.939692 -0.342003 0.0035879 
38.1591 6.33618 56.8305 -0.766044 -0.642753 0.00674301 
38.1591 6.33618 56.8305 -0.766044 -0.642753 0.00674301 
38.1591 6.3896 61.9223 -0.766044 -0.642753 0.00674303 
37.8361 6.60721 56.8277 -0.5 -0.865977 0.00908483 
37.8361 6.60721 56.8277 -0.5 -0.865977 0.00908483 
37.8361 6.66063 61.9195 -0.5 -0.865977 0.00908485 
37.4399 6.75142 56.8261 -0.173649 -0.984753 0.0103309 
37.4399 6.75142 56.8261 -0.173649 -0.984753 0.0103309 
37.4399 6.80484 61.918 -0.173649 -0.984753 0.0103309 
37.0182 6.75142 56.8261 0.173648 -0.984754 0.0103309 
37.0182 6.75142 56.8261 0.173648 -0.984754 0.0103309 
37.0182 6.80484 61.918 0.173648 -0.984754 0.0103309 
36.622 6.60721 56.8277 0.500002 -0.865977 0.00908481 
36.622 6.60721 56.8277 0.500002 -0.865977 0.00908481 
36.622 6.66063 61.9195 0.500002 -0.865977 0.00908484 
36.299 6.33618 56.8305 0.766046 -0.642751 0.00674301 
36.299 6.33618 56.8305 0.766046 -0.642751 0.00674301 
36.299 6.3896 61.9223 0.766046 -0.642751 0.00674301 
36.0881 5.97103 56.8343 0.939692 -0.342003 0.00358791 
36.0881 5.97103 56.8343 0.939692 -0.342003 0.00358791 
36.0881 6.02444 61.9262 0.939692 -0.342003 0.00358789 
36.0149 5.55579 56.8387 1.0 0.0 0.0 
36.0149 5.55579 56.8387 1.0 0.0 0.0 
36.0149 5.6092 61.9305 1.0 1.20409e-007 0.0 
36.0881 5.14055 56.843 0.939692 0.342003 -0.00358789 
36.0881 5.14055 56.843 0.939692 0.342003 -0.00358789 
36.0881 5.19397 61.9349 0.939692 0.342003 -0.00358791 
36.299 4.77539 56.8469 0.766046 0.642751 -0.00674298 
36.299 4.77539 56.8469 0.766046 0.642751 -0.00674298 
36.299 4.82881 61.9387 0.766046 0.64275 -0.006743 
36.622 4.50436 56.8497 0.500002 0.865977 -0.00908482 
36.622 4.50436 56.8497 0.500002 0.865977 -0.00908482 
36.622 4.55778 61.9415 0.500002 0.865977 -0.00908482 
37.0182 4.36015 56.8512 0.173648 0.984754 -0.0103309 
37.0182 4.36015 56.8512 0.173648 0.984754 -0.0103309 
37.0182 4.41357 61.9431 0.173648 0.984754 -0.0103309 
37.4399 4.36015 56.8512 -0.173648 0.984754 -0.0103309 
37.4399 4.36015 56.8512 -0.173648 0.984754 -0.0103309 
37.4399 4.41357 61.9431 -0.173649 0.984753 -0.0103309 
37.8361 4.50436 56.8497 -0.5 0.865978 -0.00908485 
37.8361 4.50436 56.8497 -0.5 0.865978 -0.00908485 
37.8361 4.55778 61.9415 -0.5 0.865978 -0.00908485 
38.1591 4.77539 56.8469 -0.766044 0.642753 -0.00674302 
38.1591 4.77539 56.8469 -0.766044 0.642753 -0.00674302 
38.1591 4.82881 61.9387 -0.766044 0.642753 -0.00674303 
38.37 5.14055 56.843 -0.939692 0.342003 -0.00358789 
38.37 5.14055 56.843 -0.939692 0.342003 -0.00358789 
38.37 5.19396 61.9349 -0.939692 0.342003 -0.0035879 
38.4432 5.55579 56.8387 -1.0 -1.34858e-007 0.0 
38.4432 5.55579 56.8387 -1.0 -1.34858e-007 0.0 
38.37 5.91761 51.7425 -0.939692 -0.342003 0.00358789 
38.4432 5.50237 51.7468 -1.0 0.0 0.0 
38.37 5.91761 51.7425 -0.939692 -0.342003 0.00358789 
38.37 5.97103 56.8343 -0.939692 -0.342003 0.0035879 
38.1591 6.28276 51.7387 -0.766044 -0.642753 0.00674301 
38.1591 6.28276 51.7387 -0.766044 -0.642753 0.00674301 
38.1591 6.33618 56.8305 -0.766044 -0.642753 0.00674301 
37.8361 6.55379 51.7358 -0.5 -0.865978 0.00908482 
37.8361 6.55379 51.7358 -0.5 -0.865978 0.00908482 
37.8361 6.60721 56.8277 -0.5 -0.865977 0.00908483 
37.4399 6.698 51.7343 -0.173649 -0.984753 0.0103309 
37.4399 6.698 51.7343 -0.173649 -0.984753 0.0103309 
37.4399 6.75142 56.8261 -0.173649 -0.984753 0.0103309 
37.0182 6.698 51.7343 0.173647 -0.984754 0.0103309 
37.0182 6.698 51.7343 0.173647 -0.984754 0.0103309 
37.0182 6.75142 56.8261 0.173648 -0.984754 0.0103309 
36.622 6.55379 51.7358 0.500001 -0.865977 0.00908482 
36.622 6.55379 51.7358 0.500001 -0.865977 0.00908482 
36.622 6.60721 56.8277 0.500002 -0.865977 0.00908481 
36.299 6.28276 51.7387 0.766046 -0.64275 0.00674298 
36.299 6.28276 51.7387 0.766046 -0.64275 0.00674298 
36.299 6.33618 56.8305 0.766046 -0.642751 0.00674301 
36.0881 5.91761 51.7425 0.939692 -0.342003 0.0035879 
36.0881 5.91761 51.7425 0.939692 -0.342003 0.0035879 
36.0881 5.97103 56.8343 0.939692 -0.342003 0.00358791 
36.0149 5.50237 51.7468 1.0 0.0 0.0 
36.0149 5.50237 51.7468 1.0 0.0 0.0 
36.0149 5.55579 56.8387 1.0 0.0 0.0 
36.0881 5.08713 51.7512 0.939692 0.342003 -0.00358789 
36.0881 5.08713 51.7512 0.939692 0.342003 -0.00358789 
36.0881 5.14055 56.843 0.939692 0.342003 -0.00358789 
36.299 4.72197 51.755 0.766046 0.642751 -0.00674299 
36.299 4.72197 51.755 0.766046 0.642751 -0.00674299 
36.299 4.77539 56.8469 0.766046 0.642751 -0.00674298 
36.622 4.45095 51.7579 0.500002 0.865977 -0.00908481 
36.622 4.45095 51.7579 0.500002 0.865977 -0.00908481 
36.622 4.50436 56.8497 0.500002 0.865977 -0.00908482 
37.0182 4.30674 51.7594 0.173648 0.984754 -0.0103309 
37.0182 4.30674 51.7594 0.173648 0.984754 -0.0103309 
37.0182 4.36015 56.8512 0.173648 0.984754 -0.0103309 
37.4399 4.30674 51.7594 -0.173648 0.984754 -0.0103309 
37.4399 4.30674 51.7594 -0.173648 0.984754 -0.0103309 
37.4399 4.36015 56.8512 -0.173648 0.984754 -0.0103309 
37.8361 4.45095 51.7579 -0.5 0.865978 -0.00908482 
37.8361 4.45095 51.7579 -0.5 0.865978 -0.00908482 
37.8361 4.50436 56.8497 -0.5 0.865978 -0.00908485 
38.1591 4.72197 51.755 -0.766044 0.642753 -0.00674304 
38.1591 4.72197 51.755 -0.766044 0.642753 -0.00674304 
38.1591 4.77539 56.8469 -0.766044 0.642753 -0.00674302 
38.37 5.08713 51.7512 -0.939692 0.342003 -0.00358791 
38.37 5.08713 51.7512 -0.939692 0.342003 -0.00358791 
38.37 5.14055 56.843 -0.939692 0.342003 -0.00358789 
38.4432 5.50237 51.7468 -1.0 0.0 0.0 
38.4432 5.50237 51.7468 -1.0 0.0 0.0 
38.37 5.86419 46.6507 -0.939692 -0.342003 0.0035879 
38.4432 5.44895 46.655 -1.0 0.0 0.0 
38.37 5.86419 46.6507 -0.939692 -0.342003 0.0035879 
38.37 5.91761 51.7425 -0.939692 -0.342003 0.00358789 
38.1591 6.22935 46.6468 -0.766044 -0.642753 0.00674303 
38.1591 6.22935 46.6468 -0.766044 -0.642753 0.00674303 
38.1591 6.28276 51.7387 -0.766044 -0.642753 0.00674301 
37.8361 6.50038 46.644 -0.5 -0.865978 0.00908485 
37.8361 6.50038 46.644 -0.5 -0.865978 0.00908485 
37.8361 6.55379 51.7358 -0.5 -0.865978 0.00908482 
37.4399 6.64459 46.6425 -0.173649 -0.984753 0.0103309 
37.4399 6.64459 46.6425 -0.173649 -0.984753 0.0103309 
37.4399 6.698 51.7343 -0.173649 -0.984753 0.0103309 
37.0182 6.64459 46.6425 0.173647 -0.984754 0.0103309 
37.0182 6.64459 46.6425 0.173647 -0.984754 0.0103309 
37.0182 6.698 51.7343 0.173647 -0.984754 0.0103309 
36.622 6.50038 46.644 0.500002 -0.865977 0.00908484 
36.622 6.50038 46.644 0.500002 -0.865977 0.00908484 
36.622 6.55379 51.7358 0.500001 -0.865977 0.00908482 
36.299 6.22935 46.6468 0.766046 -0.64275 0.006743 
36.299 6.22935 46.6468 0.766046 -0.64275 0.006743 
36.299 6.28276 51.7387 0.766046 -0.64275 0.00674298 
36.0881 5.86419 46.6507 0.939692 -0.342003 0.0035879 
36.0881 5.86419 46.6507 0.939692 -0.342003 0.0035879 
36.0881 5.91761 51.7425 0.939692 -0.342003 0.0035879 
36.0149 5.44895 46.655 1.0 0.0 0.0 
36.0149 5.44895 46.655 1.0 0.0 0.0 
36.0149 5.50237 51.7468 1.0 0.0 0.0 
36.0881 5.03371 46.6594 0.939692 0.342003 -0.00358789 
36.0881 5.03371 46.6594 0.939692 0.342003 -0.00358789 
36.0881 5.08713 51.7512 0.939692 0.342003 -0.00358789 
36.299 4.66856 46.6632 0.766046 0.642751 -0.00674299 
36.299 4.66856 46.6632 0.766046 0.642751 -0.00674299 
36.299 4.72197 51.755 0.766046 0.642751 -0.00674299 
36.622 4.39753 46.666 0.500002 0.865977 -0.00908484 
36.622 4.39753 46.666 0.500002 0.865977 -0.00908484 
36.622 4.45095 51.7579 0.500002 0.865977 -0.00908481 
37.0182 4.25332 46.6676 0.173648 0.984754 -0.0103309 
37.0182 4.25332 46.6676 0.173648 0.984754 -0.0103309 
37.0182 4.30674 51.7594 0.173648 0.984754 -0.0103309 
37.4399 4.25332 46.6676 -0.173649 0.984753 -0.0103309 
37.4399 4.25332 46.6676 -0.173649 0.984753 -0.0103309 
37.4399 4.30674 51.7594 -0.173648 0.984754 -0.0103309 
37.8361 4.39753 46.666 -0.5 0.865978 -0.00908481 
37.8361 4.39753 46.666 -0.5 0.865978 -0.00908481 
37.8361 4.45095 51.7579 -0.5 0.865978 -0.00908482 
38.1591 4.66856 46.6632 -0.766044 0.642753 -0.00674298 
38.1591 4.66856 46.6632 -0.766044 0.642753 -0.00674298 
38.1591 4.72197 51.755 -0.766044 0.642753 -0.00674304 
38.37 5.03371 46.6594 -0.939692 0.342003 -0.00358789 
38.37 5.03371 46.6594 -0.939692 0.342003 -0.00358789 
38.37 5.08713 51.7512 -0.939692 0.342003 -0.00358791 
38.4432 5.44895 46.655 -1.0 0.0 0.0 
38.4432 5.44895 46.655 -1.0 0.0 0.0 
38.37 5.81077 41.5588 -2.90728 -1.05811 0.0111005 
38.4432 5.39553 41.5632 -3.09386 -5.16884e-007 0.0 
38.37 5.81077 41.5588 -2.90728 -1.05811 0.0111005 
38.37 5.86419 46.6507 -0.939692 -0.342003 0.0035879 
38.1591 6.17593 41.555 -2.37004 -1.98859 0.020862 
38.1591 6.17593 41.555 -2.37004 -1.98859 0.020862 
38.1591 6.22935 46.6468 -0.766044 -0.642753 0.00674303 
37.8361 6.44696 41.5522 -1.54694 -2.67922 0.0281073 
37.8361 6.44696 41.5522 -1.54694 -2.67922 0.0281073 
37.8361 6.50038 46.644 -0.5 -0.865978 0.00908485 
37.4399 6.59117 41.5506 -0.537244 -3.04669 0.0319624 
37.4399 6.59117 41.5506 -0.537244 -3.04669 0.0319624 
37.4399 6.64459 46.6425 -0.173649 -0.984753 0.0103309 
37.0182 6.59117 41.5506 0.537239 -3.04669 0.0319624 
37.0182 6.59117 41.5506 0.537239 -3.04669 0.0319624 
37.0182 6.64459 46.6425 0.173647 -0.984754 0.0103309 
36.622 6.44696 41.5522 1.54694 -2.67922 0.0281073 
36.622 6.44696 41.5522 1.54694 -2.67922 0.0281073 
36.622 6.50038 46.644 0.500002 -0.865977 0.00908484 
36.299 6.17593 41.555 2.37004 -1.98858 0.0208619 
36.299 6.17593 41.555 2.37004 -1.98858 0.0208619 
36.299 6.22935 46.6468 0.766046 -0.64275 0.006743 
36.0881 5.81077 41.5588 2.90728 -1.05811 0.0111005 
36.0881 5.81077 41.5588 2.90728 -1.05811 0.0111005 
36.0881 5.86419 46.6507 0.939692 -0.342003 0.0035879 
36.0149 5.39553 41.5632 3.09386 -1.49012e-007 0.0 
36.0149 5.39553 41.5632 3.09386 -1.49012e-007 0.0 
36.0149 5.44895 46.655 1.0 0.0 0.0 
36.0881 4.9803 41.5675 2.90728 1.05811 -0.0111005 
36.0881 4.9803 41.5675 2.90728 1.05811 -0.0111005 
36.0881 5.03371 46.6594 0.939692 0.342003 -0.00358789 
36.299 4.61514 41.5714 2.37004 1.98858 -0.0208618 
36.299 4.61514 41.5714 2.37004 1.98858 -0.0208618 
36.299 4.66856 46.6632 0.766046 0.642751 -0.00674299 
36.622 4.34411 41.5742 1.54694 2.67922 -0.0281072 
36.622 4.34411 41.5742 1.54694 2.67922 -0.0281072 
36.622 4.39753 46.666 0.500002 0.865977 -0.00908484 
37.0182 4.1999 41.5757 0.537242 3.04669 -0.0319624 
37.0182 4.1999 41.5757 0.537242 3.04669 -0.0319624 
37.0182 4.25332 46.6676 0.173648 0.984754 -0.0103309 
37.4399 4.1999 41.5757 -0.537242 3.04669 -0.0319625 
37.4399 4.1999 41.5757 -0.537242 3.04669 -0.0319625 
37.4399 4.25332 46.6676 -0.173649 0.984753 -0.0103309 
37.8361 4.34411 41.5742 -1.54694 2.67923 -0.0281076 
37.8361 4.34411 41.5742 -1.54694 2.67923 -0.0281076 
37.8361 4.39753 46.666 -0.5 0.865978 -0.00908481 
38.1591 4.61514 41.5714 -2.37003 1.98858 -0.020862 
38.1591 4.61514 41.5714 -2.37003 1.98858 -0.020862 
38.1591 4.66856 46.6632 -0.766044 0.642753 -0.00674298 
38.37 4.98029 41.5675 -2.90728 1.05811 -0.0111004 
38.37 4.98029 41.5675 -2.90728 1.05811 -0.0111004 
38.37 5.03371 46.6594 -0.939692 0.342003 -0.00358789 
38.4432 5.39553 41.5632 -3.09386 -5.16884e-007 0.0 
37.2291 5.39553 41.5632 0.0 0.0104899 0.999945 
3 0 1 2
3 0 3 4
3 0 5 6
3 0 7 8
3 0 9 10
3 0 11 12
3 0 13 14
3 0 15 16
3 0 17 18
3 0 19 20
3 0 21 22
3 0 23 24
3 0 25 26
3 0 27 28
3 0 29 30
3 0 31 32
3 0 33 34
3 0 35 36
3 37 38 39
3 37 1 40
3 41 42 40
3 41 3 43
3 44 45 43
3 44 5 46
3 47 48 46
3 47 7 49
3 50 51 49
3 50 9 52
3 53 54 52
3 53 11 55
3 56 57 55
3 56 13 58
3 59 60 58
3 59 15 61
3 62 63 61
3 62 17 64
3 65 66 64
3 65 19 67
3 68 69 67
3 68 21 70
3 71 72 70
3 71 23 73
3 74 75 73
3 74 25 76
3 77 78 76
3 77 27 79
3 80 81 79
3 80 29 82
3 83 84 82
3 83 31 85
3 86 87 85
3 86 33 88
3 89 90 88
3 89 35 39
3 91 92 93
3 91 38 94
3 95 96 94
3 95 42 97
3 98 99 97
3 98 45 100
3 101 102 100
3 101 48 103
3 104 105 103
3 104 51 106
3 107 108 106
3 107 54 109
3 110 111 109
3 110 57 112
3 113 114 112
3 113 60 115
3 116 117 115
3 116 63 118
3 119 120 118
3 119 66 121
3 122 123 121
3 122 69 124
3 125 126 124
3 125 72 127
3 128 129 127
3 128 75 130
3 131 132 130
3 131 78 133
3 134 135 133
3 134 81 136
3 137 138 136
3 137 84 139
3 140 141 139
3 140 87 142
3 143 144 142
3 143 90 93
3 145 146 147
3 145 92 148
3 149 150 148
3 149 96 151
3 152 153 151
3 152 99 154
3 155 156 154
3 155 102 157
3 158 159 157
3 158 105 160
3 161 162 160
3 161 108 163
3 164 165 163
3 164 111 166
3 167 168 166
3 167 114 169
3 170 171 169
3 170 117 172
3 173 174 172
3 173 120 175
3 176 177 175
3 176 123 178
3 179 180 178
3 179 126 181
3 182 183 181
3 182 129 184
3 185 186 184
3 185 132 187
3 188 189 187
3 188 135 190
3 191 192 190
3 191 138 193
3 194 195 193
3 194 141 196
3 197 198 196
3 197 144 147
3 199 200 201
3 199 146 202
3 203 204 202
3 203 150 205
3 206 207 205
3 206 153 208
3 209 210 208
3 209 156 211
3 212 213 211
3 212 159 214
3 215 216 214
3 215 162 217
3 218 219 217
3 218 165 220
3 221 222 220
3 221 168 223
3 224 225 223
3 224 171 226
3 227 228 226
3 227 174 229
3 230 231 229
3 230 177 232
3 233 234 232
3 233 180 235
3 236 237 235
3 236 183 238
3 239 240 238
3 239 186 241
3 242 243 241
3 242 189 244
3 245 246 244
3 245 192 247
3 248 249 247
3 248 195 250
3 251 252 250
3 251 198 201
3 253 254 255
3 253 200 256
3 257 258 256
3 257 204 259
3 260 261 259
3 260 207 262
3 263 264 262
3 263 210 265
3 266 267 265
3 266 213 268
3 269 270 268
3 269 216 271
3 272 273 271
3 272 219 274
3 275 276 274
3 275 222 277
3 278 279 277
3 278 225 280
3 281 282 280
3 281 228 283
3 284 285 283
3 284 231 286
3 287 288 286
3 287 234 289
3 290 291 289
3 290 237 292
3 293 294 292
3 293 240 295
3 296 297 295
3 296 243 298
3 299 300 298
3 299 246 301
3 302 303 301
3 302 249 304
3 305 306 304
3 305 252 255
3 307 306 256
3 307 254 259
3 307 258 262
3 307 261 265
3 307 264 268
3 307 267 271
3 307 270 274
3 307 273 277
3 307 276 280
3 307 279 283
3 307 282 286
3 307 285 289
3 307 288 292
3 307 291 295
3 307 294 298
3 307 297 301
3 307 300 304
3 307 303 255
