ply
format ascii 1.0
element vertex 71
property float x
property float y
property float z
property float nx
property float ny
property float nz
element face 46
property list uchar int vertex_index
end_header
-6.07372 -0.500626 45.409 0.0 1.5708 0.0 
-6.07372 -0.500626 66.9054 0.0 1.5708 0.0 
5.27717 -0.500626 66.9054 0.0 1.5708 0.0 
5.27717 -0.500626 66.9054 0.0 1.5708 0.0 
5.27717 -0.500626 45.409 0.0 1.5708 0.0 
-6.07372 -0.500626 45.409 0.0 1.5708 0.0 
-6.07372 9.20144 45.409 -0.000623874 -1.5708 0.000329429 
5.30705 9.1949 45.409 -0.000902432 -1.56941 0.000476518 
5.27717 9.20144 66.9054 -0.000280156 -1.57219 0.000147933 
5.27717 9.20144 66.9054 -0.000280156 -1.57219 0.000147933 
-6.07372 9.20144 66.9054 0.0 -1.5708 0.0 
-6.07372 9.20144 45.409 -0.000623874 -1.5708 0.000329429 
-3.70713 -0.500626 12.8232 0.0 -0.605708 0.795687 
1.0801 -0.500626 12.8232 0.0 -0.605708 0.795687 
1.0801 1.6868 14.4884 0.0 -0.605708 0.795687 
1.0801 1.6868 14.4884 0.0 -0.605708 0.795687 
-3.70713 1.6868 14.4884 0.0 -0.605708 0.795687 
-3.70713 -0.500626 12.8232 0.0 -0.605708 0.795687 
5.27717 -0.500626 45.409 0.0 1.5708 0.0 
5.27717 -0.500626 66.9054 0.0 1.5708 0.0 
5.26238 5.64859 45.409 -0.999991 0.00431334 -2.46767e-005 
5.27717 -0.500626 45.409 0.0 1.5708 0.0 
-6.07372 9.20144 66.9054 0.0 -1.5708 0.0 
-6.07372 9.20144 66.9054 0.0 -1.5708 0.0 
5.27717 9.20144 66.9054 -0.000280156 -1.57219 0.000147933 
-6.07372 -0.500626 66.9054 0.0 1.5708 0.0 
-6.07372 -0.500626 45.409 0.0 1.5708 0.0 
-6.07372 5.8591 45.409 1.0 0.0 0.0 
-6.07372 -0.500626 66.9054 0.0 1.5708 0.0 
2.37754 -0.500626 21.41 0.0 1.0 0.0 
2.37754 -0.500626 21.41 0.0 1.0 0.0 
-4.65924 -0.500626 21.41 0.0 1.0 0.0 
5.30705 9.1949 45.409 -0.000902432 -1.56941 0.000476518 
-6.07372 9.20144 45.409 -0.000623874 -1.5708 0.000329429 
-6.05096 5.98335 45.0356 -6.6291e-005 -0.115286 0.993332 
-4.65924 3.91378 21.41 0.0 -0.976105 0.217301 
2.37754 3.91378 21.41 0.0 -0.976105 0.217301 
3.32144 5.67978 29.3428 0.0 -0.976105 0.217301 
2.37754 3.91378 21.41 0.0 -0.976105 0.217301 
2.37754 3.91378 21.41 0.0 -0.976105 0.217301 
2.37754 -0.500626 21.41 0.0 1.0 0.0 
-6.07372 5.8591 45.409 1.0 0.0 0.0 
-4.65924 -0.500626 21.41 0.0 1.0 0.0 
-4.65924 -0.500626 21.41 0.0 1.0 0.0 
-4.65924 3.91378 21.41 0.0 -0.976105 0.217301 
-5.14295 5.72201 29.617 0.998268 0.0 0.058837 
1.0801 -0.500626 12.8232 0.0 -0.605708 0.795687 
1.0801 -0.500626 12.8232 0.0 -0.605708 0.795687 
-3.70713 -0.500626 12.8232 0.0 -0.605708 0.795687 
-3.70713 1.6868 14.4884 0.0 -0.605708 0.795687 
-3.70713 1.6868 14.4884 0.0 -0.605708 0.795687 
1.0801 1.6868 14.4884 0.0 -0.605708 0.795687 
-4.65924 3.91378 21.41 0.0 -0.976105 0.217301 
5.2129 5.64939 44.9995 -0.992751 -0.00804559 0.119917 
3.32144 5.67978 29.3428 0.0 -0.976105 0.217301 
5.26238 5.64859 45.409 -0.999991 0.00431334 -2.46767e-005 
3.35803 5.74455 29.6388 -0.992701 0.0125078 0.11995 
3.35803 5.74455 29.6388 -0.992701 0.0125078 0.11995 
5.26238 5.64859 45.409 -0.999991 0.00431334 -2.46767e-005 
5.25436 5.71731 45.046 -0.999621 0.0125929 0.0244667 
-5.14295 5.72201 29.617 0.998268 0.0 0.058837 
-5.14295 5.72201 29.617 0.998268 0.0 0.058837 
-6.04765 5.85526 44.9667 0.998268 0.0 0.058837 
-6.05096 5.98335 45.0356 -6.6291e-005 -0.115286 0.993332 
-6.04765 5.85526 44.9667 0.998268 0.0 0.058837 
-6.07372 5.8591 45.409 1.0 0.0 0.0 
5.25436 5.71731 45.046 -0.999621 0.0125929 0.0244667 
5.2129 5.64939 44.9995 -0.992751 -0.00804559 0.119917 
5.2129 5.64939 44.9995 -0.992751 -0.00804559 0.119917 
5.25436 5.71731 45.046 -0.999621 0.0125929 0.0244667 
5.30705 9.1949 45.409 -0.000902432 -1.56941 0.000476518 
3 0 1 2
3 3 4 5
3 6 7 8
3 9 10 11
3 12 13 14
3 15 16 17
3 18 19 8
3 9 20 21
3 3 1 22
3 23 24 2
3 25 26 27
3 6 10 28
3 0 4 29
3 30 31 5
3 32 33 34
3 35 36 37
3 18 20 38
3 39 40 21
3 41 26 42
3 43 44 45
3 43 40 46
3 47 48 42
3 30 36 14
3 15 13 29
3 39 44 49
3 50 51 38
3 35 31 17
3 12 16 52
3 53 54 38
3 9 7 55
3 53 56 37
3 35 54 57
3 35 56 45
3 58 7 59
3 60 56 59
3 43 61 62
3 63 64 45
3 25 65 11
3 66 56 67
3 58 68 38
3 58 69 67
3 60 69 34
3 63 69 70
3 6 65 34
3 63 65 62
3 43 64 27
