ply
format ascii 1.0
element vertex 24
property float x
property float y
property float z
property float nx
property float ny
property float nz
element face 12
property list uchar int vertex_index
end_header
5.21159 0.0 46.8697 0.0 1.5708 0.0 
5.21159 0.0 67.3029 0.0 1.5708 0.0 
36.0754 0.0 67.3029 0.0 1.5708 0.0 
36.0754 0.0 67.3029 0.0 1.5708 0.0 
36.0754 0.0 46.8697 0.0 1.5708 0.0 
5.21159 0.0 46.8697 0.0 1.5708 0.0 
5.21159 1.95483 46.8697 0.0 -1.5708 0.0 
36.0754 1.95483 46.8697 0.0 -1.5708 0.0 
36.0754 1.95483 67.3029 0.0 -1.5708 0.0 
36.0754 1.95483 67.3029 0.0 -1.5708 0.0 
5.21159 1.95483 67.3029 0.0 -1.5708 0.0 
5.21159 1.95483 46.8697 0.0 -1.5708 0.0 
36.0754 1.95483 46.8697 0.0 -1.5708 0.0 
36.0754 1.95483 46.8697 0.0 -1.5708 0.0 
5.21159 1.95483 46.8697 0.0 -1.5708 0.0 
36.0754 0.0 46.8697 0.0 1.5708 0.0 
36.0754 0.0 67.3029 0.0 1.5708 0.0 
36.0754 0.0 46.8697 0.0 1.5708 0.0 
5.21159 1.95483 67.3029 0.0 -1.5708 0.0 
5.21159 1.95483 67.3029 0.0 -1.5708 0.0 
36.0754 1.95483 67.3029 0.0 -1.5708 0.0 
5.21159 0.0 67.3029 0.0 1.5708 0.0 
5.21159 0.0 46.8697 0.0 1.5708 0.0 
5.21159 0.0 67.3029 0.0 1.5708 0.0 
3 0 1 2
3 3 4 5
3 6 7 8
3 9 10 11
3 0 4 12
3 13 14 5
3 15 16 8
3 9 7 17
3 3 1 18
3 19 20 2
3 21 22 11
3 6 10 23
