ply
format ascii 1.0
element vertex 24
property float x
property float y
property float z
property float nx
property float ny
property float nz
element face 12
property list uchar int vertex_index
end_header
-4.7547 5.75942 29.7722 0.0 1.67506 0.0 
-5.92329 5.75942 45.115 0.0 1.49478 0.0 
5.3032 5.75942 45.115 0.0 1.45264 0.0 
5.3032 5.75942 45.115 0.0 1.45264 0.0 
3.4543 5.75942 29.5403 0.0 1.66071 0.0 
-4.7547 5.75942 29.7722 0.0 1.67506 0.0 
-4.7547 5.95781 29.7722 0.00585466 -1.63735 0.33673 
3.4543 5.95781 29.5403 0.00936777 -1.62345 0.331574 
5.3032 9.20336 45.3789 0.00253854 -1.42674 0.295068 
5.3032 9.20336 45.3789 0.00253854 -1.42674 0.295068 
-5.92329 9.20336 45.3789 0.0 -1.46625 0.304921 
-4.7547 5.95781 29.7722 0.00585466 -1.63735 0.33673 
3.4543 5.95781 29.5403 0.00936777 -1.62345 0.331574 
3.4543 5.95781 29.5403 0.00936777 -1.62345 0.331574 
-4.7547 5.95781 29.7722 0.00585466 -1.63735 0.33673 
3.4543 5.75942 29.5403 0.0 1.66071 0.0 
5.3032 5.75942 45.115 0.0 1.45264 0.0 
3.4543 5.75942 29.5403 0.0 1.66071 0.0 
-5.92329 9.20336 45.3789 0.0 -1.46625 0.304921 
-5.92329 9.20336 45.3789 0.0 -1.46625 0.304921 
5.3032 9.20336 45.3789 0.00253854 -1.42674 0.295068 
-5.92329 5.75942 45.115 0.0 1.49478 0.0 
-4.7547 5.75942 29.7722 0.0 1.67506 0.0 
-5.92329 5.75942 45.115 0.0 1.49478 0.0 
3 0 1 2
3 3 4 5
3 6 7 8
3 9 10 11
3 0 4 12
3 13 14 5
3 15 16 8
3 9 7 17
3 3 1 18
3 19 20 2
3 21 22 11
3 6 10 23
