ply
format ascii 1.0
element vertex 308
property float x
property float y
property float z
property float nx
property float ny
property float nz
element face 216
property list uchar int vertex_index
end_header
37.2291 1.1075 67.0223 0.0 -0.0104905 -0.999945 
38.37 1.52274 67.018 -1.1316e-006 -0.0292924 -2.79238 
38.4432 1.1075 67.0223 0.0 -0.0292954 -2.79237 
38.1591 1.88789 67.0142 4.65663e-006 -0.0292975 -2.79237 
38.37 1.52274 67.018 -1.1316e-006 -0.0292924 -2.79238 
37.8361 2.15892 67.0113 -1.55173e-006 -0.0292982 -2.79238 
38.1591 1.88789 67.0142 4.65663e-006 -0.0292975 -2.79237 
37.4399 2.30313 67.0098 -7.33993e-006 -0.0292919 -2.79237 
37.8361 2.15892 67.0113 -1.55173e-006 -0.0292982 -2.79238 
37.0182 2.30313 67.0098 7.33988e-006 -0.0292919 -2.79238 
37.4399 2.30313 67.0098 -7.33993e-006 -0.0292919 -2.79237 
36.622 2.15892 67.0113 1.55161e-006 -0.0292981 -2.79237 
37.0182 2.30313 67.0098 7.33988e-006 -0.0292919 -2.79238 
36.299 1.88789 67.0142 -4.65669e-006 -0.0292976 -2.79238 
36.622 2.15892 67.0113 1.55161e-006 -0.0292981 -2.79237 
36.0881 1.52274 67.018 1.12872e-006 -0.0292924 -2.79238 
36.299 1.88789 67.0142 -4.65669e-006 -0.0292976 -2.79238 
36.0149 1.1075 67.0223 0.0 -0.0292955 -2.79237 
36.0881 1.52274 67.018 1.12872e-006 -0.0292924 -2.79238 
36.0881 0.692257 67.0267 -1.13643e-006 -0.0292924 -2.79238 
36.0149 1.1075 67.0223 0.0 -0.0292955 -2.79237 
36.299 0.327102 67.0305 4.65088e-006 -0.0292976 -2.79238 
36.0881 0.692257 67.0267 -1.13643e-006 -0.0292924 -2.79238 
36.622 0.0560734 67.0334 -1.56032e-006 -0.0292981 -2.79237 
36.299 0.327102 67.0305 4.65088e-006 -0.0292976 -2.79238 
37.0182 -0.0881377 67.0349 -7.353e-006 -0.0292919 -2.79238 
36.622 0.0560734 67.0334 -1.56032e-006 -0.0292981 -2.79237 
37.4399 -0.088138 67.0349 7.32262e-006 -0.0292919 -2.79237 
37.0182 -0.0881377 67.0349 -7.353e-006 -0.0292919 -2.79238 
37.8361 0.0560728 67.0334 1.53238e-006 -0.0292982 -2.79238 
37.4399 -0.088138 67.0349 7.32262e-006 -0.0292919 -2.79237 
38.1591 0.327101 67.0305 -4.67726e-006 -0.0292975 -2.79237 
37.8361 0.0560728 67.0334 1.53238e-006 -0.0292982 -2.79238 
38.37 0.692256 67.0267 1.12128e-006 -0.0292924 -2.79238 
38.1591 0.327101 67.0305 -4.67726e-006 -0.0292975 -2.79237 
38.4432 1.1075 67.0223 0.0 -0.0292954 -2.79237 
38.37 0.692256 67.0267 1.12128e-006 -0.0292924 -2.79238 
38.4432 1.1075 67.0223 0.0 -0.0292954 -2.79237 
38.37 1.46932 61.9262 -0.939692 -0.342003 0.0035879 
38.4432 1.05408 61.9305 -1.0 -1.83022e-007 0.0 
38.37 1.46932 61.9262 -0.939692 -0.342003 0.0035879 
38.37 1.52274 67.018 -1.1316e-006 -0.0292924 -2.79238 
38.1591 1.83447 61.9223 -0.766044 -0.642753 0.00674301 
38.1591 1.83447 61.9223 -0.766044 -0.642753 0.00674301 
38.1591 1.88789 67.0142 4.65663e-006 -0.0292975 -2.79237 
37.8361 2.1055 61.9195 -0.5 -0.865978 0.00908484 
37.8361 2.1055 61.9195 -0.5 -0.865978 0.00908484 
37.8361 2.15892 67.0113 -1.55173e-006 -0.0292982 -2.79238 
37.4399 2.24971 61.918 -0.173649 -0.984753 0.0103309 
37.4399 2.24971 61.918 -0.173649 -0.984753 0.0103309 
37.4399 2.30313 67.0098 -7.33993e-006 -0.0292919 -2.79237 
37.0182 2.24971 61.918 0.173647 -0.984754 0.0103309 
37.0182 2.24971 61.918 0.173647 -0.984754 0.0103309 
37.0182 2.30313 67.0098 7.33988e-006 -0.0292919 -2.79238 
36.622 2.1055 61.9195 0.500002 -0.865977 0.00908482 
36.622 2.1055 61.9195 0.500002 -0.865977 0.00908482 
36.622 2.15892 67.0113 1.55161e-006 -0.0292981 -2.79237 
36.299 1.83447 61.9223 0.766046 -0.642751 0.006743 
36.299 1.83447 61.9223 0.766046 -0.642751 0.006743 
36.299 1.88789 67.0142 -4.65669e-006 -0.0292976 -2.79238 
36.0881 1.46932 61.9262 0.939692 -0.342003 0.0035879 
36.0881 1.46932 61.9262 0.939692 -0.342003 0.0035879 
36.0881 1.52274 67.018 1.12872e-006 -0.0292924 -2.79238 
36.0149 1.05408 61.9305 1.0 0.0 0.0 
36.0149 1.05408 61.9305 1.0 0.0 0.0 
36.0149 1.1075 67.0223 0.0 -0.0292955 -2.79237 
36.0881 0.63884 61.9349 0.939692 0.342003 -0.0035879 
36.0881 0.63884 61.9349 0.939692 0.342003 -0.0035879 
36.0881 0.692257 67.0267 -1.13643e-006 -0.0292924 -2.79238 
36.299 0.273684 61.9387 0.766046 0.64275 -0.00674299 
36.299 0.273684 61.9387 0.766046 0.64275 -0.00674299 
36.299 0.327102 67.0305 4.65088e-006 -0.0292976 -2.79238 
36.622 0.00265574 61.9415 0.500002 0.865977 -0.00908483 
36.622 0.00265574 61.9415 0.500002 0.865977 -0.00908483 
36.622 0.0560734 67.0334 -1.56032e-006 -0.0292981 -2.79237 
37.0182 -0.141555 61.9431 0.173648 0.984754 -0.0103309 
37.0182 -0.141555 61.9431 0.173648 0.984754 -0.0103309 
37.0182 -0.0881377 67.0349 -7.353e-006 -0.0292919 -2.79238 
37.4399 -0.141556 61.9431 -0.173648 0.984753 -0.0103309 
37.4399 -0.141556 61.9431 -0.173648 0.984753 -0.0103309 
37.4399 -0.088138 67.0349 7.32262e-006 -0.0292919 -2.79237 
37.8361 0.00265515 61.9415 -0.5 0.865978 -0.00908484 
37.8361 0.00265515 61.9415 -0.5 0.865978 -0.00908484 
37.8361 0.0560728 67.0334 1.53238e-006 -0.0292982 -2.79238 
38.1591 0.273683 61.9387 -0.766044 0.642753 -0.00674302 
38.1591 0.273683 61.9387 -0.766044 0.642753 -0.00674302 
38.1591 0.327101 67.0305 -4.67726e-006 -0.0292975 -2.79237 
38.37 0.638839 61.9349 -0.939692 0.342003 -0.0035879 
38.37 0.638839 61.9349 -0.939692 0.342003 -0.0035879 
38.37 0.692256 67.0267 1.12128e-006 -0.0292924 -2.79238 
38.4432 1.05408 61.9305 -1.0 -1.83022e-007 0.0 
38.4432 1.05408 61.9305 -1.0 -1.83022e-007 0.0 
38.37 1.4159 56.8343 -0.939692 -0.342003 0.0035879 
38.4432 1.00066 56.8387 -1.0 -1.44491e-007 0.0 
38.37 1.4159 56.8343 -0.939692 -0.342003 0.0035879 
38.37 1.46932 61.9262 -0.939692 -0.342003 0.0035879 
38.1591 1.78106 56.8305 -0.766044 -0.642753 0.00674302 
38.1591 1.78106 56.8305 -0.766044 -0.642753 0.00674302 
38.1591 1.83447 61.9223 -0.766044 -0.642753 0.00674301 
37.8361 2.05208 56.8277 -0.5 -0.865978 0.00908483 
37.8361 2.05208 56.8277 -0.5 -0.865978 0.00908483 
37.8361 2.1055 61.9195 -0.5 -0.865978 0.00908484 
37.4399 2.1963 56.8261 -0.173649 -0.984753 0.0103309 
37.4399 2.1963 56.8261 -0.173649 -0.984753 0.0103309 
37.4399 2.24971 61.918 -0.173649 -0.984753 0.0103309 
37.0182 2.1963 56.8261 0.173647 -0.984754 0.0103309 
37.0182 2.1963 56.8261 0.173647 -0.984754 0.0103309 
37.0182 2.24971 61.918 0.173647 -0.984754 0.0103309 
36.622 2.05208 56.8277 0.500001 -0.865977 0.00908483 
36.622 2.05208 56.8277 0.500001 -0.865977 0.00908483 
36.622 2.1055 61.9195 0.500002 -0.865977 0.00908482 
36.299 1.78106 56.8305 0.766046 -0.64275 0.00674299 
36.299 1.78106 56.8305 0.766046 -0.64275 0.00674299 
36.299 1.83447 61.9223 0.766046 -0.642751 0.006743 
36.0881 1.4159 56.8343 0.939692 -0.342003 0.0035879 
36.0881 1.4159 56.8343 0.939692 -0.342003 0.0035879 
36.0881 1.46932 61.9262 0.939692 -0.342003 0.0035879 
36.0149 1.00066 56.8387 1.0 0.0 0.0 
36.0149 1.00066 56.8387 1.0 0.0 0.0 
36.0149 1.05408 61.9305 1.0 0.0 0.0 
36.0881 0.585422 56.843 0.939692 0.342003 -0.0035879 
36.0881 0.585422 56.843 0.939692 0.342003 -0.0035879 
36.0881 0.63884 61.9349 0.939692 0.342003 -0.0035879 
36.299 0.220267 56.8469 0.766046 0.642751 -0.006743 
36.299 0.220267 56.8469 0.766046 0.642751 -0.006743 
36.299 0.273684 61.9387 0.766046 0.64275 -0.00674299 
36.622 -0.0507618 56.8497 0.500002 0.865977 -0.00908483 
36.622 -0.0507618 56.8497 0.500002 0.865977 -0.00908483 
36.622 0.00265574 61.9415 0.500002 0.865977 -0.00908483 
37.0182 -0.194973 56.8512 0.173648 0.984754 -0.0103309 
37.0182 -0.194973 56.8512 0.173648 0.984754 -0.0103309 
37.0182 -0.141555 61.9431 0.173648 0.984754 -0.0103309 
37.4399 -0.194973 56.8512 -0.173649 0.984753 -0.0103309 
37.4399 -0.194973 56.8512 -0.173649 0.984753 -0.0103309 
37.4399 -0.141556 61.9431 -0.173648 0.984753 -0.0103309 
37.8361 -0.0507624 56.8497 -0.5 0.865978 -0.00908484 
37.8361 -0.0507624 56.8497 -0.5 0.865978 -0.00908484 
37.8361 0.00265515 61.9415 -0.5 0.865978 -0.00908484 
38.1591 0.220266 56.8469 -0.766044 0.642753 -0.00674302 
38.1591 0.220266 56.8469 -0.766044 0.642753 -0.00674302 
38.1591 0.273683 61.9387 -0.766044 0.642753 -0.00674302 
38.37 0.585421 56.843 -0.939692 0.342003 -0.0035879 
38.37 0.585421 56.843 -0.939692 0.342003 -0.0035879 
38.37 0.638839 61.9349 -0.939692 0.342003 -0.0035879 
38.4432 1.00066 56.8387 -1.0 -1.44491e-007 0.0 
38.4432 1.00066 56.8387 -1.0 -1.44491e-007 0.0 
38.37 1.36248 51.7425 -0.939692 -0.342003 0.0035879 
38.4432 0.947243 51.7468 -1.0 -1.83022e-007 0.0 
38.37 1.36248 51.7425 -0.939692 -0.342003 0.0035879 
38.37 1.4159 56.8343 -0.939692 -0.342003 0.0035879 
38.1591 1.72764 51.7387 -0.766044 -0.642753 0.00674302 
38.1591 1.72764 51.7387 -0.766044 -0.642753 0.00674302 
38.1591 1.78106 56.8305 -0.766044 -0.642753 0.00674302 
37.8361 1.99867 51.7358 -0.5 -0.865978 0.00908484 
37.8361 1.99867 51.7358 -0.5 -0.865978 0.00908484 
37.8361 2.05208 56.8277 -0.5 -0.865978 0.00908483 
37.4399 2.14288 51.7343 -0.173649 -0.984753 0.0103309 
37.4399 2.14288 51.7343 -0.173649 -0.984753 0.0103309 
37.4399 2.1963 56.8261 -0.173649 -0.984753 0.0103309 
37.0182 2.14288 51.7343 0.173647 -0.984754 0.0103309 
37.0182 2.14288 51.7343 0.173647 -0.984754 0.0103309 
37.0182 2.1963 56.8261 0.173647 -0.984754 0.0103309 
36.622 1.99867 51.7358 0.500001 -0.865977 0.00908483 
36.622 1.99867 51.7358 0.500001 -0.865977 0.00908483 
36.622 2.05208 56.8277 0.500001 -0.865977 0.00908483 
36.299 1.72764 51.7387 0.766046 -0.642751 0.006743 
36.299 1.72764 51.7387 0.766046 -0.642751 0.006743 
36.299 1.78106 56.8305 0.766046 -0.64275 0.00674299 
36.0881 1.36248 51.7425 0.939692 -0.342003 0.0035879 
36.0881 1.36248 51.7425 0.939692 -0.342003 0.0035879 
36.0881 1.4159 56.8343 0.939692 -0.342003 0.0035879 
36.0149 0.947244 51.7468 1.0 0.0 0.0 
36.0149 0.947244 51.7468 1.0 0.0 0.0 
36.0149 1.00066 56.8387 1.0 0.0 0.0 
36.0881 0.532004 51.7512 0.939692 0.342003 -0.0035879 
36.0881 0.532004 51.7512 0.939692 0.342003 -0.0035879 
36.0881 0.585422 56.843 0.939692 0.342003 -0.0035879 
36.299 0.166849 51.755 0.766046 0.64275 -0.00674299 
36.299 0.166849 51.755 0.766046 0.64275 -0.00674299 
36.299 0.220267 56.8469 0.766046 0.642751 -0.006743 
36.622 -0.10418 51.7579 0.500002 0.865977 -0.00908482 
36.622 -0.10418 51.7579 0.500002 0.865977 -0.00908482 
36.622 -0.0507618 56.8497 0.500002 0.865977 -0.00908483 
37.0182 -0.248391 51.7594 0.173648 0.984754 -0.0103309 
37.0182 -0.248391 51.7594 0.173648 0.984754 -0.0103309 
37.0182 -0.194973 56.8512 0.173648 0.984754 -0.0103309 
37.4399 -0.248391 51.7594 -0.173648 0.984753 -0.0103309 
37.4399 -0.248391 51.7594 -0.173648 0.984753 -0.0103309 
37.4399 -0.194973 56.8512 -0.173649 0.984753 -0.0103309 
37.8361 -0.10418 51.7579 -0.5 0.865978 -0.00908484 
37.8361 -0.10418 51.7579 -0.5 0.865978 -0.00908484 
37.8361 -0.0507624 56.8497 -0.5 0.865978 -0.00908484 
38.1591 0.166848 51.755 -0.766044 0.642753 -0.00674302 
38.1591 0.166848 51.755 -0.766044 0.642753 -0.00674302 
38.1591 0.220266 56.8469 -0.766044 0.642753 -0.00674302 
38.37 0.532003 51.7512 -0.939692 0.342003 -0.0035879 
38.37 0.532003 51.7512 -0.939692 0.342003 -0.0035879 
38.37 0.585421 56.843 -0.939692 0.342003 -0.0035879 
38.4432 0.947243 51.7468 -1.0 -1.83022e-007 0.0 
38.4432 0.947243 51.7468 -1.0 -1.83022e-007 0.0 
38.37 1.30907 46.6507 -0.939692 -0.342003 0.0035879 
38.4432 0.893826 46.655 -1.0 -1.68573e-007 0.0 
38.37 1.30907 46.6507 -0.939692 -0.342003 0.0035879 
38.37 1.36248 51.7425 -0.939692 -0.342003 0.0035879 
38.1591 1.67422 46.6468 -0.766044 -0.642753 0.00674302 
38.1591 1.67422 46.6468 -0.766044 -0.642753 0.00674302 
38.1591 1.72764 51.7387 -0.766044 -0.642753 0.00674302 
37.8361 1.94525 46.644 -0.5 -0.865978 0.00908483 
37.8361 1.94525 46.644 -0.5 -0.865978 0.00908483 
37.8361 1.99867 51.7358 -0.5 -0.865978 0.00908484 
37.4399 2.08946 46.6425 -0.173649 -0.984753 0.0103309 
37.4399 2.08946 46.6425 -0.173649 -0.984753 0.0103309 
37.4399 2.14288 51.7343 -0.173649 -0.984753 0.0103309 
37.0182 2.08946 46.6425 0.173648 -0.984754 0.0103309 
37.0182 2.08946 46.6425 0.173648 -0.984754 0.0103309 
37.0182 2.14288 51.7343 0.173647 -0.984754 0.0103309 
36.622 1.94525 46.644 0.500002 -0.865977 0.00908482 
36.622 1.94525 46.644 0.500002 -0.865977 0.00908482 
36.622 1.99867 51.7358 0.500001 -0.865977 0.00908483 
36.299 1.67422 46.6468 0.766046 -0.64275 0.00674299 
36.299 1.67422 46.6468 0.766046 -0.64275 0.00674299 
36.299 1.72764 51.7387 0.766046 -0.642751 0.006743 
36.0881 1.30907 46.6507 0.939692 -0.342003 0.0035879 
36.0881 1.30907 46.6507 0.939692 -0.342003 0.0035879 
36.0881 1.36248 51.7425 0.939692 -0.342003 0.0035879 
36.0149 0.893826 46.655 1.0 0.0 0.0 
36.0149 0.893826 46.655 1.0 0.0 0.0 
36.0149 0.947244 51.7468 1.0 0.0 0.0 
36.0881 0.478587 46.6594 0.939692 0.342003 -0.0035879 
36.0881 0.478587 46.6594 0.939692 0.342003 -0.0035879 
36.0881 0.532004 51.7512 0.939692 0.342003 -0.0035879 
36.299 0.113431 46.6632 0.766046 0.642751 -0.00674299 
36.299 0.113431 46.6632 0.766046 0.642751 -0.00674299 
36.299 0.166849 51.755 0.766046 0.64275 -0.00674299 
36.622 -0.157597 46.666 0.500002 0.865977 -0.00908483 
36.622 -0.157597 46.666 0.500002 0.865977 -0.00908483 
36.622 -0.10418 51.7579 0.500002 0.865977 -0.00908482 
37.0182 -0.301808 46.6676 0.173648 0.984754 -0.0103309 
37.0182 -0.301808 46.6676 0.173648 0.984754 -0.0103309 
37.0182 -0.248391 51.7594 0.173648 0.984754 -0.0103309 
37.4399 -0.301808 46.6676 -0.173648 0.984754 -0.0103309 
37.4399 -0.301808 46.6676 -0.173648 0.984754 -0.0103309 
37.4399 -0.248391 51.7594 -0.173648 0.984753 -0.0103309 
37.8361 -0.157598 46.666 -0.5 0.865978 -0.00908483 
37.8361 -0.157598 46.666 -0.5 0.865978 -0.00908483 
37.8361 -0.10418 51.7579 -0.5 0.865978 -0.00908484 
38.1591 0.11343 46.6632 -0.766044 0.642753 -0.00674302 
38.1591 0.11343 46.6632 -0.766044 0.642753 -0.00674302 
38.1591 0.166848 51.755 -0.766044 0.642753 -0.00674302 
38.37 0.478586 46.6594 -0.939692 0.342003 -0.0035879 
38.37 0.478586 46.6594 -0.939692 0.342003 -0.0035879 
38.37 0.532003 51.7512 -0.939692 0.342003 -0.0035879 
38.4432 0.893826 46.655 -1.0 -1.68573e-007 0.0 
38.4432 0.893826 46.655 -1.0 -1.68573e-007 0.0 
38.37 1.25565 41.5588 -2.90728 -1.05811 0.0111005 
38.4432 0.840408 41.5632 -3.09386 -4.27477e-007 0.0 
38.37 1.25565 41.5588 -2.90728 -1.05811 0.0111005 
38.37 1.30907 46.6507 -0.939692 -0.342003 0.0035879 
38.1591 1.6208 41.555 -2.37004 -1.98859 0.020862 
38.1591 1.6208 41.555 -2.37004 -1.98859 0.020862 
38.1591 1.67422 46.6468 -0.766044 -0.642753 0.00674302 
37.8361 1.89183 41.5522 -1.54694 -2.67922 0.0281073 
37.8361 1.89183 41.5522 -1.54694 -2.67922 0.0281073 
37.8361 1.94525 46.644 -0.5 -0.865978 0.00908483 
37.4399 2.03604 41.5506 -0.537245 -3.04669 0.0319624 
37.4399 2.03604 41.5506 -0.537245 -3.04669 0.0319624 
37.4399 2.08946 46.6425 -0.173649 -0.984753 0.0103309 
37.0182 2.03604 41.5506 0.53724 -3.04669 0.0319624 
37.0182 2.03604 41.5506 0.53724 -3.04669 0.0319624 
37.0182 2.08946 46.6425 0.173648 -0.984754 0.0103309 
36.622 1.89183 41.5522 1.54694 -2.67922 0.0281073 
36.622 1.89183 41.5522 1.54694 -2.67922 0.0281073 
36.622 1.94525 46.644 0.500002 -0.865977 0.00908482 
36.299 1.6208 41.555 2.37004 -1.98858 0.0208619 
36.299 1.6208 41.555 2.37004 -1.98858 0.0208619 
36.299 1.67422 46.6468 0.766046 -0.64275 0.00674299 
36.0881 1.25565 41.5588 2.90728 -1.05811 0.0111005 
36.0881 1.25565 41.5588 2.90728 -1.05811 0.0111005 
36.0881 1.30907 46.6507 0.939692 -0.342003 0.0035879 
36.0149 0.840408 41.5632 3.09386 -2.68221e-007 0.0 
36.0149 0.840408 41.5632 3.09386 -2.68221e-007 0.0 
36.0149 0.893826 46.655 1.0 0.0 0.0 
36.0881 0.425169 41.5675 2.90728 1.05811 -0.0111005 
36.0881 0.425169 41.5675 2.90728 1.05811 -0.0111005 
36.0881 0.478587 46.6594 0.939692 0.342003 -0.0035879 
36.299 0.0600137 41.5714 2.37004 1.98858 -0.0208619 
36.299 0.0600137 41.5714 2.37004 1.98858 -0.0208619 
36.299 0.113431 46.6632 0.766046 0.642751 -0.00674299 
36.622 -0.211015 41.5742 1.54694 2.67922 -0.0281073 
36.622 -0.211015 41.5742 1.54694 2.67922 -0.0281073 
36.622 -0.157597 46.666 0.500002 0.865977 -0.00908483 
37.0182 -0.355226 41.5757 0.537241 3.04669 -0.0319624 
37.0182 -0.355226 41.5757 0.537241 3.04669 -0.0319624 
37.0182 -0.301808 46.6676 0.173648 0.984754 -0.0103309 
37.4399 -0.355226 41.5757 -0.537243 3.04669 -0.0319624 
37.4399 -0.355226 41.5757 -0.537243 3.04669 -0.0319624 
37.4399 -0.301808 46.6676 -0.173648 0.984754 -0.0103309 
37.8361 -0.211015 41.5742 -1.54694 2.67923 -0.0281074 
37.8361 -0.211015 41.5742 -1.54694 2.67923 -0.0281074 
37.8361 -0.157598 46.666 -0.5 0.865978 -0.00908483 
38.1591 0.0600127 41.5714 -2.37003 1.98859 -0.0208619 
38.1591 0.0600127 41.5714 -2.37003 1.98859 -0.0208619 
38.1591 0.11343 46.6632 -0.766044 0.642753 -0.00674302 
38.37 0.425168 41.5675 -2.90728 1.05811 -0.0111005 
38.37 0.425168 41.5675 -2.90728 1.05811 -0.0111005 
38.37 0.478586 46.6594 -0.939692 0.342003 -0.0035879 
38.4432 0.840408 41.5632 -3.09386 -4.27477e-007 0.0 
37.2291 0.840408 41.5632 0.0 0.0104899 0.999945 
3 0 1 2
3 0 3 4
3 0 5 6
3 0 7 8
3 0 9 10
3 0 11 12
3 0 13 14
3 0 15 16
3 0 17 18
3 0 19 20
3 0 21 22
3 0 23 24
3 0 25 26
3 0 27 28
3 0 29 30
3 0 31 32
3 0 33 34
3 0 35 36
3 37 38 39
3 37 1 40
3 41 42 40
3 41 3 43
3 44 45 43
3 44 5 46
3 47 48 46
3 47 7 49
3 50 51 49
3 50 9 52
3 53 54 52
3 53 11 55
3 56 57 55
3 56 13 58
3 59 60 58
3 59 15 61
3 62 63 61
3 62 17 64
3 65 66 64
3 65 19 67
3 68 69 67
3 68 21 70
3 71 72 70
3 71 23 73
3 74 75 73
3 74 25 76
3 77 78 76
3 77 27 79
3 80 81 79
3 80 29 82
3 83 84 82
3 83 31 85
3 86 87 85
3 86 33 88
3 89 90 88
3 89 35 39
3 91 92 93
3 91 38 94
3 95 96 94
3 95 42 97
3 98 99 97
3 98 45 100
3 101 102 100
3 101 48 103
3 104 105 103
3 104 51 106
3 107 108 106
3 107 54 109
3 110 111 109
3 110 57 112
3 113 114 112
3 113 60 115
3 116 117 115
3 116 63 118
3 119 120 118
3 119 66 121
3 122 123 121
3 122 69 124
3 125 126 124
3 125 72 127
3 128 129 127
3 128 75 130
3 131 132 130
3 131 78 133
3 134 135 133
3 134 81 136
3 137 138 136
3 137 84 139
3 140 141 139
3 140 87 142
3 143 144 142
3 143 90 93
3 145 146 147
3 145 92 148
3 149 150 148
3 149 96 151
3 152 153 151
3 152 99 154
3 155 156 154
3 155 102 157
3 158 159 157
3 158 105 160
3 161 162 160
3 161 108 163
3 164 165 163
3 164 111 166
3 167 168 166
3 167 114 169
3 170 171 169
3 170 117 172
3 173 174 172
3 173 120 175
3 176 177 175
3 176 123 178
3 179 180 178
3 179 126 181
3 182 183 181
3 182 129 184
3 185 186 184
3 185 132 187
3 188 189 187
3 188 135 190
3 191 192 190
3 191 138 193
3 194 195 193
3 194 141 196
3 197 198 196
3 197 144 147
3 199 200 201
3 199 146 202
3 203 204 202
3 203 150 205
3 206 207 205
3 206 153 208
3 209 210 208
3 209 156 211
3 212 213 211
3 212 159 214
3 215 216 214
3 215 162 217
3 218 219 217
3 218 165 220
3 221 222 220
3 221 168 223
3 224 225 223
3 224 171 226
3 227 228 226
3 227 174 229
3 230 231 229
3 230 177 232
3 233 234 232
3 233 180 235
3 236 237 235
3 236 183 238
3 239 240 238
3 239 186 241
3 242 243 241
3 242 189 244
3 245 246 244
3 245 192 247
3 248 249 247
3 248 195 250
3 251 252 250
3 251 198 201
3 253 254 255
3 253 200 256
3 257 258 256
3 257 204 259
3 260 261 259
3 260 207 262
3 263 264 262
3 263 210 265
3 266 267 265
3 266 213 268
3 269 270 268
3 269 216 271
3 272 273 271
3 272 219 274
3 275 276 274
3 275 222 277
3 278 279 277
3 278 225 280
3 281 282 280
3 281 228 283
3 284 285 283
3 284 231 286
3 287 288 286
3 287 234 289
3 290 291 289
3 290 237 292
3 293 294 292
3 293 240 295
3 296 297 295
3 296 243 298
3 299 300 298
3 299 246 301
3 302 303 301
3 302 249 304
3 305 306 304
3 305 252 255
3 307 306 256
3 307 254 259
3 307 258 262
3 307 261 265
3 307 264 268
3 307 267 271
3 307 270 274
3 307 273 277
3 307 276 280
3 307 279 283
3 307 282 286
3 307 285 289
3 307 288 292
3 307 291 295
3 307 294 298
3 307 297 301
3 307 300 304
3 307 303 255
